<svg id="Layer_3" enable-background="new 0 0 64 64" height="512" viewBox="0 0 64 64" width="512" xmlns="http://www.w3.org/2000/svg"><g><path d="m51.996 33.956c-.328.029-.66.044-.996.044-1.975 0-3.828-.52-5.43-1.431l.002-.003c-1.04.725-2.26 1.21-3.58 1.373l.008.061-2.552 7.657c-.268.802-1.018 1.343-1.863 1.343-.925 0-1.724-.645-1.919-1.549 0 0-.892-4.13-.891-4.129-.831.433-1.774.678-2.775.678s-1.944-.245-2.774-.678v-.001l-.892 4.13c-.195.904-.994 1.549-1.919 1.549-.845 0-1.595-.541-1.863-1.343l-2.552-7.657.008-.061c-1.318-.163-2.537-.647-3.576-1.371l.001-.001c-1.603.912-3.457 1.433-5.433 1.433-.336 0-.668-.015-.996-.044l-.004.044c5.873 5.873 9.911 13.327 11.622 21.455l1.044 4.957c.195.926 1.011 1.588 1.957 1.588h10.754c.946 0 1.762-.662 1.957-1.588l1.044-4.957c1.711-8.128 5.749-15.582 11.622-21.455z" fill="#96cc7f"/><path d="m51.747 12.038c-.876-3.468-4.007-6.038-7.747-6.038-1.084 0-2.116.218-3.059.609-1.996-2.787-5.252-4.609-8.941-4.609s-6.945 1.822-8.941 4.609c-.943-.391-1.975-.609-3.059-.609-3.74 0-6.871 2.57-7.747 6.038-5.725.386-10.253 5.139-10.253 10.962 0 6.075 4.925 11 11 11 1.976 0 3.826-.528 5.428-1.44 1.297.905 2.871 1.44 4.572 1.44 1.122 0 2.189-.233 3.158-.65.613 2.663 2.993 4.65 5.842 4.65s5.229-1.987 5.842-4.65c.969.417 2.036.65 3.158.65 1.701 0 3.275-.535 4.572-1.44 1.602.912 3.452 1.44 5.428 1.44 6.075 0 11-4.925 11-11 0-5.823-4.528-10.576-10.253-10.962z" fill="#669e4f"/><g><path d="m44.072 32.436c-2.029-1.155-3.668-2.86-4.738-4.932l1.776-.919c.893 1.728 2.259 3.149 3.951 4.111z" fill="#78b75b"/></g><g><path d="m36.933 11.503-1.731-1.001c.988-1.71 2.535-3.066 4.355-3.821l.765 1.849c-1.417.585-2.62 1.642-3.389 2.973z" fill="#78b75b"/></g><g><path d="m18.47 15.626c-1.627-1.064-3.519-1.628-5.471-1.628v-2c2.342 0 4.612.676 6.565 1.955z" fill="#78b75b"/></g><g><path d="m22.999 30.998c-1.422 0-2.778-.61-3.721-1.676-.314-.355-.91-.375-1.327-.046-1.423 1.127-3.135 1.722-4.951 1.722-4.412 0-8-3.588-8-7.999h2c0 3.308 2.691 5.999 6 5.999 1.361 0 2.644-.445 3.71-1.289 1.257-.995 3.043-.868 4.065.288.563.637 1.374 1.001 2.224 1.001 1.654 0 3-1.346 3-2.999h2c0 2.757-2.242 4.999-5 4.999z" fill="#78b75b"/></g></g></svg>